<svg width="28" height="22" viewBox="0 0 28 22" fill="none" xmlns="http://www.w3.org/2000/svg">
<path d="M0 1C0 0.447715 0.447715 0 1 0H27C27.5523 0 28 0.447715 28 1C28 1.55228 27.5523 2 27 2H1C0.447715 2 0 1.55228 0 1Z" fill="#4F5864"/>
<path d="M0 11C0 10.4477 0.447715 10 1 10H27C27.5523 10 28 10.4477 28 11C28 11.5523 27.5523 12 27 12H1C0.447715 12 0 11.5523 0 11Z" fill="#4F5864"/>
<path d="M0 21C0 20.4477 0.447715 20 1 20H27C27.5523 20 28 20.4477 28 21C28 21.5523 27.5523 22 27 22H1C0.447715 22 0 21.5523 0 21Z" fill="#4F5864"/>
</svg>
